<?xml version="1.0" encoding="iso-8859-1"?>
<!-- Generator: Adobe Illustrator 19.0.0, SVG Export Plug-In . SVG Version: 6.00 Build 0)  -->
<svg version="1.1" id="Capa_1" xmlns="http://www.w3.org/2000/svg" xmlns:xlink="http://www.w3.org/1999/xlink" x="0px" y="0px"
	 viewBox="0 0 197.973 197.973" style="enable-background:new 0 0 197.973 197.973;" xml:space="preserve">
<path style="fill:#602F75;" d="M98.987,102.4H20.48c-1.884,0-3.413-1.529-3.413-3.413V20.48c0-1.884,1.529-3.413,3.413-3.413h78.507
	c1.884,0,3.413,1.529,3.413,3.413v78.507C102.4,100.871,100.871,102.4,98.987,102.4z M23.893,95.573h71.68v-71.68h-71.68V95.573z"/>
<rect x="40.96" y="40.96" style="fill:#FFE600;" width="37.547" height="37.547"/>
<rect x="119.467" y="119.467" style="fill:#00E7FF;" width="37.547" height="37.547"/>
<circle style="fill:#EA3457;" cx="20.48" cy="20.48" r="17.067"/>
<path style="fill:#602F75;" d="M20.48,40.96C9.187,40.96,0,31.773,0,20.48S9.187,0,20.48,0s20.48,9.187,20.48,20.48
	S31.773,40.96,20.48,40.96z M20.48,6.827c-7.528,0-13.653,6.125-13.653,13.653s6.125,13.653,13.653,13.653
	s13.653-6.125,13.653-13.653S28.008,6.827,20.48,6.827z"/>
<circle style="fill:#FFFFFF;" cx="98.987" cy="20.48" r="17.067"/>
<path style="fill:#602F75;" d="M98.987,40.96c-11.293,0-20.48-9.187-20.48-20.48S87.694,0,98.987,0s20.48,9.187,20.48,20.48
	S110.28,40.96,98.987,40.96z M98.987,6.827c-7.528,0-13.653,6.125-13.653,13.653s6.125,13.653,13.653,13.653
	s13.653-6.125,13.653-13.653S106.515,6.827,98.987,6.827z"/>
<circle style="fill:#FFFFFF;" cx="20.48" cy="98.987" r="17.067"/>
<g>
	<path style="fill:#602F75;" d="M20.48,119.467C9.187,119.467,0,110.28,0,98.987s9.187-20.48,20.48-20.48s20.48,9.187,20.48,20.48
		S31.773,119.467,20.48,119.467z M20.48,85.333c-7.528,0-13.653,6.125-13.653,13.653s6.125,13.653,13.653,13.653
		s13.653-6.125,13.653-13.653S28.008,85.333,20.48,85.333z"/>
	<path style="fill:#602F75;" d="M177.493,180.907H98.987c-1.884,0-3.413-1.529-3.413-3.413V98.987c0-1.884,1.529-3.413,3.413-3.413
		h78.507c1.884,0,3.413,1.529,3.413,3.413v78.507C180.907,179.378,179.378,180.907,177.493,180.907z M102.4,174.08h71.68V102.4
		H102.4V174.08z"/>
</g>
<circle style="fill:#FFFFFF;" cx="177.493" cy="98.987" r="17.067"/>
<path style="fill:#602F75;" d="M177.493,119.467c-11.293,0-20.48-9.187-20.48-20.48s9.187-20.48,20.48-20.48
	c11.293,0,20.48,9.187,20.48,20.48S188.786,119.467,177.493,119.467z M177.493,85.333c-7.528,0-13.653,6.125-13.653,13.653
	s6.125,13.653,13.653,13.653c7.528,0,13.653-6.125,13.653-13.653S185.021,85.333,177.493,85.333z"/>
<circle style="fill:#EA3457;" cx="98.987" cy="98.987" r="17.067"/>
<path style="fill:#602F75;" d="M98.987,119.467c-11.293,0-20.48-9.187-20.48-20.48s9.187-20.48,20.48-20.48s20.48,9.187,20.48,20.48
	S110.28,119.467,98.987,119.467z M98.987,85.333c-7.528,0-13.653,6.125-13.653,13.653s6.125,13.653,13.653,13.653
	s13.653-6.125,13.653-13.653S106.515,85.333,98.987,85.333z"/>
<circle style="fill:#FFFFFF;" cx="98.987" cy="177.493" r="17.067"/>
<path style="fill:#602F75;" d="M98.987,197.973c-11.293,0-20.48-9.187-20.48-20.48c0-11.293,9.187-20.48,20.48-20.48
	s20.48,9.187,20.48,20.48C119.467,188.786,110.28,197.973,98.987,197.973z M98.987,163.84c-7.528,0-13.653,6.125-13.653,13.653
	c0,7.528,6.125,13.653,13.653,13.653s13.653-6.125,13.653-13.653C112.64,169.965,106.515,163.84,98.987,163.84z"/>
<circle style="fill:#EA3457;" cx="177.493" cy="177.493" r="17.067"/>
<path style="fill:#602F75;" d="M177.493,197.973c-11.293,0-20.48-9.187-20.48-20.48c0-11.293,9.187-20.48,20.48-20.48
	c11.293,0,20.48,9.187,20.48,20.48C197.973,188.786,188.786,197.973,177.493,197.973z M177.493,163.84
	c-7.528,0-13.653,6.125-13.653,13.653c0,7.528,6.125,13.653,13.653,13.653c7.528,0,13.653-6.125,13.653-13.653
	C191.147,169.965,185.021,163.84,177.493,163.84z"/>
<g>
</g>
<g>
</g>
<g>
</g>
<g>
</g>
<g>
</g>
<g>
</g>
<g>
</g>
<g>
</g>
<g>
</g>
<g>
</g>
<g>
</g>
<g>
</g>
<g>
</g>
<g>
</g>
<g>
</g>
</svg>
